{"title":"The.Darkness.Rage.and.the.Fury.2014.BRRip.XviD.MP3-RARBG","uid":12112427,"size":917124674,"categoryP":"video","categoryS":"movies","magnet":"?xt=urn:btih:7f78af9b54904dae5c2cc7ebaff1b7775cf8319b&amp;dn=The.Darkness.Rage.and.the.Fury.2014.BRRip.XviD.MP3-RARBG&amp;tr=udp%3A%2F%2Ftracker.openbittorrent.com%3A80&amp;tr=udp%3A%2F%2Fopen.demonii.com%3A1337&amp;tr=udp%3A%2F%2Ftracker.coppersurfer.tk%3A6969&amp;tr=udp%3A%2F%2Fexodus.desync.com%3A6969","seeders":0,"leechers":0,"uploader":null,"files":4,"time":1436609907,"description":"Video\nID                                       : 0\nFormat                                   : MPEG-4 Visual\nFormat profile                           : Simple@L5\nFormat settings, BVOP                    : No\nFormat settings, QPel                    : No\nFormat settings, GMC                     : No warppoints\nFormat settings, Matrix                  : Default (H.263)\nCodec ID                                 : XVID\nCodec ID/Hint                            : XviD\nDuration                                 : 1h 23mn\nBit rate                                 : 1 267 Kbps\nWidth                                    : 720 pixels\nHeight                                   : 400 pixels\nDisplay aspect ratio                     : 16:9\nFrame rate                               : 23.976 fps\nColor space                              : YUV\nChroma subsampling                       : 4:2:0\nBit depth                                : 8 bits\nScan type                                : Progressive\nCompression mode                         : Lossy\nBits/(Pixel*Frame)                       : 0.183\nStream size                              : 752 MiB (86%)\nTitle                                    : RARBG.COM - The.Darkness.Rage.and.the.Fury.2014.BRRip.XviD.MP3-RARBG\nWriting library                          : Lavc56.19.100\n\nAudio\nID                                       : 1\nFormat                                   : MPEG Audio\nFormat version                           : Version 1\nFormat profile                           : Layer 3\nMode                                     : Joint stereo\nMode extension                           : MS Stereo\nCodec ID                                 : 55\nCodec ID/Hint                            : MP3\nDuration                                 : 1h 23mn\nBit rate mode                            : Constant\nBit rate                                 : 192 Kbps\nChannel(s)                               : 2 channels\nSampling rate                            : 48.0 KHz\nCompression mode                         : Lossy\nStream size                              : 114 MiB (13%)\nAlignment                                : Aligned on interleaves\nInterleave, duration                     : 24 ms (0.58 video frame)\nInterleave, preload duration             : 24 ms\nTitle                                    : RARBG.COM - The.Darkness.Rage.and.the.Fury.2014.BRRip.XviD.MP3-RARBG\nWriting library                          : LAME3.99.5","torrent":{"xt":"urn:btih:7f78af9b54904dae5c2cc7ebaff1b7775cf8319b","amp;dn":"The.Darkness.Rage.and.the.Fury.2014.BRRip.XviD.MP3-RARBG","amp;tr":["udp%3A%2F%2Ftracker.openbittorrent.com%3A80","udp%3A%2F%2Fopen.demonii.com%3A1337","udp%3A%2F%2Ftracker.coppersurfer.tk%3A6969","udp%3A%2F%2Fexodus.desync.com%3A6969"],"infoHash":"7f78af9b54904dae5c2cc7ebaff1b7775cf8319b","infoHashBuffer":{"type":"Buffer","data":[127,120,175,155,84,144,77,174,92,44,199,235,175,241,183,119,92,248,49,155]},"announce":[],"urlList":[]}}